# xmcd
# 
# Track frame offsets:
#     150
#     18200
#     32253
#     48263
#     63690
#     82110
#     100975
#     117223
#     139263
#     159830
#     181245
#     200270
# 
# Disc length: 2784
# 
# Revision: 1
# Processed by: cddbd v1.5.2PL0 Copyright (c) Steve Scherf et al.
# Submitted via: BonkEnc v1.0.5
# 
DISCID=940ade0c
DTITLE=憂歌団 - Acoustic Sellection
DYEAR=0
DGENRE=JPop
TTITLE0=渚のボード・ウォーク
TTITLE1=Boy, My Boy
TTITLE2=If I Had You
TTITLE3=Whiskey Mood～UKAより～
TTITLE4=ザ・エン歌
TTITLE5=上海ラプソディ
TTITLE6=Midnight Drinker
TTITLE7=恥ずかしい
TTITLE8=ア・イ・シ・テ・ル
TTITLE9=引き潮
TTITLE10=嘘は罪
TTITLE11=Whiskey Mood～リラックスデラックスより～
EXTD=
EXTT0=
EXTT1=
EXTT2=
EXTT3=
EXTT4=
EXTT5=
EXTT6=
EXTT7=
EXTT8=
EXTT9=
EXTT10=
EXTT11=
PLAYORDER=
